<svg xmlns="http://www.w3.org/2000/svg" version="1.1" xmlns:xlink="http://www.w3.org/1999/xlink" width="1000" height="1000"><g clip-path="url(#SvgjsClipPath1146)"><rect width="1000" height="1000" fill="#ffffff"></rect><g transform="matrix(1.3671875,0,0,1.3671875,237.5,150)"><svg xmlns="http://www.w3.org/2000/svg" version="1.1" xmlns:xlink="http://www.w3.org/1999/xlink" width="384" height="512"><svg xmlns="http://www.w3.org/2000/svg" viewBox="0 0 384 512"><!--! Font Awesome Pro 6.7.2 by @fontawesome - https://fontawesome.com License - https://fontawesome.com/license (Commercial License) Copyright 2024 Fonticons, Inc. --><defs><style>.fa-secondary{opacity:.4}</style><clipPath id="SvgjsClipPath1146"><rect width="1000" height="1000" x="0" y="0" rx="350" ry="350"></rect></clipPath></defs><path class="fa-secondary" d=""></path><path class="fa-primary" d="M352 256l0 208c0 8.8 7.2 16 16 16s16-7.2 16-16l0-240 0-176c0-8.8-7.2-16-16-16s-16 7.2-16 16l0 176L32 224 32 48c0-8.8-7.2-16-16-16S0 39.2 0 48L0 464c0 8.8 7.2 16 16 16s16-7.2 16-16l0-208 320 0z"></path></svg></svg></g></g></svg>